<?xml version="1.0" encoding="UTF-8"?>
<svg width="1200pt" height="1200pt" version="1.1" viewBox="0 0 1200 1200" xmlns="http://www.w3.org/2000/svg">
 <path fill="#F1661E" d="m1071 129.05c-172.03-172.03-452.02-172.03-624.1 0-83.391 83.391-129.28 194.21-129.28 312.05 0 96.047 30.422 187.36 86.859 263.02 4.9219 6.5625 10.031 13.078 15.328 19.406l-57.422 57.469 56.719 56.719 57.469-57.469c6.3281 5.3438 12.797 10.406 19.406 15.281 77.719 57.844 170.34 86.719 262.97 86.719 56.531 0 112.97-10.734 166.13-32.25 53.109-21.516 102.94-53.766 145.92-96.797 172.03-172.13 172.03-452.06 0-624.14zm-85.266 538.82c-62.531 62.531-144.66 93.844-226.78 93.844-82.125-0.046875-164.29-31.266-226.78-93.844-125.06-125.06-125.06-328.55 0-453.56 62.484-62.531 144.66-93.844 226.78-93.844 82.117 0 164.26 31.266 226.78 93.844 60.609 60.562 93.938 141.14 93.938 226.74 0 85.688-33.328 166.26-93.938 226.78z"/>
 <path fill="#F1661E" d="m758.9 161.29c-74.719 0-144.98 29.062-197.86 81.938-52.828 52.828-81.938 123.1-81.938 197.81 0 6.8438 5.4844 12.281 12.281 12.281s12.281-5.4375 12.281-12.281c0-68.156 26.578-132.28 74.766-180.52 48.234-48.234 112.31-74.719 180.52-74.719 6.7969 0 12.281-5.4844 12.281-12.281 0-6.7969-5.4844-12.281-12.281-12.281z"/>
 <path fill="#F1661E" d="m410.39 863.72-74.109-74.062c-0.28125-0.28125-0.5625-0.60938-0.84375-0.89062l-5.5781-5.5312c-6.4219-6.4688-15.094-10.078-24.188-10.078-9.1875 0-17.766 3.5625-24.234 10.078l-253.36 253.31c-18.141 18.047-28.031 42.141-28.031 67.688 0 25.594 9.9375 49.594 28.031 67.688 18.047 18.094 42.141 28.031 67.641 28.031 25.594 0 49.641-9.9844 67.734-28.031l253.36-253.36c13.359-13.359 13.359-35.109 0-48.469l-6.4219-6.4219z"/>
</svg>
