<?xml version="1.0" encoding="UTF-8"?>
<svg width="1200pt" height="1200pt" version="1.1" viewBox="0 0 1200 1200" xmlns="http://www.w3.org/2000/svg">
 <path fill="#F1661E" d="m972.57 450c-14.387 38.699-29.629 78.145-43.043 112.2 52.379 75.852 83.34 171.02 83.34 275.69 0 16.309-0.78125 32.773-2.207 48.672-2.5781 28.441 18.312 53.52 46.68 56.148 1.5469 0.10938 3.1445 0.21484 4.7539 0.21484 26.363 0 48.91-20.184 51.348-46.969 1.7031-19.094 2.6406-38.594 2.6406-58.066 0-152.45-54.348-288.49-143.52-387.89h0.011719z" fill-rule="evenodd"/>
 <path fill="#F1661E" d="m600.01 385.5c22.609 0 44.594 1.9219 66.109 5.6172 22.609-28.344 47.891-59.555 72.504-89.184-43.957-12.695-90.422-19.656-138.62-19.656-289.37 0-516.09 244.05-516.09 555.61 0 19.164 0.82813 38.293 2.543 56.914 2.5312 28.453 27.875 49.297 55.945 46.859 28.43-2.6406 49.379-27.625 46.848-56.039-1.3789-15.59-2.1133-31.738-2.1133-47.734 0-253.7 181.36-452.39 412.87-452.39z" fill-rule="evenodd"/>
 <path fill="#F1661E" d="m503.35 777.72c-35.555 61.766-11.605 112.51 37.789 140.98 49.32 28.535 105.32 24 140.98-37.777 35.566-61.668 260.48-612.34 240.93-623.63-19.57-11.305-384.07 458.69-419.69 520.43z" fill-rule="evenodd"/>
</svg>
