<?xml version="1.0" encoding="UTF-8"?>
<svg width="1200pt" height="1200pt" version="1.1" viewBox="0 0 1200 1200" xmlns="http://www.w3.org/2000/svg">
 <path fill="#F1661E" d="m931.69 566.95c-14.016 0-25.312 11.344-25.312 25.312v361.03c0 13.547-11.016 24.562-24.562 24.562h-706.64c-13.547 0-24.562-11.016-24.562-24.562l0.046875-706.6c0-13.547 11.016-24.562 24.562-24.562h728.81c33-0.28125 33.469-50.203 0-50.625h-728.81c-41.484 0-75.188 33.75-75.188 75.188v706.64c0 41.438 33.75 75.188 75.188 75.188h706.6c41.484 0 75.188-33.75 75.188-75.188v-361.03c0-13.969-11.344-25.312-25.312-25.312z"/>
 <path fill="#F1661E" d="m1081.9 230.58c-23.812-23.531-64.828-23.531-88.359 0l-444.37 444.14-136.5-136.5c-59.766-55.594-145.4 28.219-88.359 88.359l180.79 180.79c11.625 11.906 27.328 18.234 44.062 18.234s32.391-6.3281 44.297-18.234l488.44-488.44c24.141-23.109 24.047-65.062 0-88.359z"/>
</svg>
