<?xml version="1.0" encoding="UTF-8"?>
<svg width="1200pt" height="1200pt" version="1.1" viewBox="200 200 800 800" xmlns="http://www.w3.org/2000/svg">
 <path fill="#F1661E" stroke="#F1661E" stroke-width="20" d="m440.15 312.83c-3.4336 0.3125-6.7461 1.8398-9.2109 4.25l-128.73 127.76c-2.8047 2.7734-4.457 6.6836-4.4883 10.629v446.82c0 7.9141 7.2031 15.113 15.117 15.113h423.28c7.9141 0 15.117-7.2031 15.117-15.113v-204.04c0.023437-0.46875 0.023437-0.94531 0-1.418l139.12-139.1c5.8516-5.8516 9.3086-11.863 10.867-17.004 1.5547-5.1406 0.94531-11.098 0.94531-11.098-0.46094-3.1914-1.9766-6.2188-4.25-8.5l-30.234-30.23c-2.0664-2.0234-4.7227-3.4375-7.5586-4.0156 0 0-2.5078-0.51562-4.4883-0.47266-1.9805 0.046875-4.4453 0.40625-7.0859 1.1797-5.2852 1.5469-11.293 4.9141-17.242 10.863l-80.074 80.059v-250.57c0-7.9141-7.2031-15.113-15.117-15.113h-295.97zm31.414 30.23h249.43v265.68l-89.758 89.742c-0.3125-0.089844-0.62891-0.16797-0.94531-0.23438h-213.06c-7.918 0.37109-14.781 7.9062-14.41 15.824 0.37109 7.9141 7.9141 14.777 15.828 14.406h182.59l-34.484 34.48c-1.8789 1.8086-3.2773 4.1094-4.0156 6.6133l-15.117 52.898c-2.9922 10.383 8.5508 21.777 18.898 18.656l52.91-15.113c2.3945-0.70312 4.6055-2.0195 6.3789-3.7773l95.191-95.172v160.12h-393.05v-400.53h128.5c7.9141 0 15.117-7.1992 15.117-15.113zm-30.234 6.375v106.98h-108.18zm-24.094 167.44c-7.918 0.37109-14.781 7.9062-14.41 15.824 0.37109 7.9141 7.9141 14.777 15.828 14.406h219.2c7.9883 0.11328 15.332-7.1289 15.332-15.113 0-7.9844-7.3477-15.227-15.332-15.113h-220.62zm436.04 2.3633 16.297 16.297c-86.621 87.082-174.87 175.07-262.19 262.37l-22.91 6.6133 6.6133-23.145c87.273-87.254 175.32-175.29 262.19-262.14zm-398.25 88.324c-7.918 0.37109-14.781 7.9062-14.41 15.824 0.37109 7.9141 7.9141 14.777 15.828 14.406h181.41c7.9883 0.11328 15.332-7.1289 15.332-15.113 0-7.9844-7.3477-15.227-15.332-15.113h-182.82z"/>
</svg>
